<?xml version="1.0" encoding="utf-8" standalone="no"?>
<!DOCTYPE svg PUBLIC "-//W3C//DTD SVG 1.1//EN"
  "http://www.w3.org/Graphics/SVG/1.1/DTD/svg11.dtd">
<svg xmlns:xlink="http://www.w3.org/1999/xlink" width="460.8pt" height="345.6pt" viewBox="0 0 460.8 345.6" xmlns="http://www.w3.org/2000/svg" version="1.1">
 <metadata>
  <rdf:RDF xmlns:dc="http://purl.org/dc/elements/1.1/" xmlns:cc="http://creativecommons.org/ns#" xmlns:rdf="http://www.w3.org/1999/02/22-rdf-syntax-ns#">
   <cc:Work>
    <dc:type rdf:resource="http://purl.org/dc/dcmitype/StillImage"/>
    <dc:date>2025-06-15T18:13:18.186613</dc:date>
    <dc:format>image/svg+xml</dc:format>
    <dc:creator>
     <cc:Agent>
      <dc:title>Matplotlib v3.9.4, https://matplotlib.org/</dc:title>
     </cc:Agent>
    </dc:creator>
   </cc:Work>
  </rdf:RDF>
 </metadata>
 <defs>
  <style type="text/css">*{stroke-linejoin: round; stroke-linecap: butt}</style>
 </defs>
 <g id="figure_1">
  <g id="patch_1">
   <path d="M 0 345.6 
L 460.8 345.6 
L 460.8 0 
L 0 0 
z
" style="fill: #ffffff"/>
  </g>
  <g id="axes_1">
   <g id="patch_2">
    <path d="M 57.6 307.584 
L 414.72 307.584 
L 414.72 41.472 
L 57.6 41.472 
z
" style="fill: #ffffff"/>
   </g>
   <g id="PolyCollection_1">
    <path d="M 73.832727 271.804235 
L 73.832727 307.584 
L 88.589752 307.584 
L 103.346777 307.584 
L 118.103802 307.584 
L 132.860826 307.584 
L 147.617851 307.584 
L 162.374876 307.584 
L 177.131901 307.584 
L 191.888926 307.584 
L 206.64595 307.584 
L 221.402975 307.584 
L 236.16 307.584 
L 250.917025 307.584 
L 265.67405 307.584 
L 280.431074 307.584 
L 295.188099 307.584 
L 309.945124 307.584 
L 324.702149 307.584 
L 339.459174 307.584 
L 354.216198 307.584 
L 368.973223 307.584 
L 383.730248 307.584 
L 398.487273 307.584 
L 398.487273 286.712471 
L 398.487273 286.712471 
L 383.730248 298.639059 
L 368.973223 300.626824 
L 354.216198 291.681882 
L 339.459174 298.639059 
L 324.702149 298.639059 
L 309.945124 304.602353 
L 295.188099 269.816471 
L 280.431074 284.724706 
L 265.67405 284.724706 
L 250.917025 285.718588 
L 236.16 272.798118 
L 221.402975 282.736941 
L 206.64595 273.792 
L 191.888926 287.706353 
L 177.131901 272.798118 
L 162.374876 281.743059 
L 147.617851 279.755294 
L 132.860826 271.804235 
L 118.103802 285.718588 
L 103.346777 284.724706 
L 88.589752 273.792 
L 73.832727 271.804235 
z
" clip-path="url(#p5f233d8d12)" style="fill: #1f77b4"/>
   </g>
   <g id="PolyCollection_2">
    <path d="M 73.832727 151.544471 
L 73.832727 271.804235 
L 88.589752 273.792 
L 103.346777 284.724706 
L 118.103802 285.718588 
L 132.860826 271.804235 
L 147.617851 279.755294 
L 162.374876 281.743059 
L 177.131901 272.798118 
L 191.888926 287.706353 
L 206.64595 273.792 
L 221.402975 282.736941 
L 236.16 272.798118 
L 250.917025 285.718588 
L 265.67405 284.724706 
L 280.431074 284.724706 
L 295.188099 269.816471 
L 309.945124 304.602353 
L 324.702149 298.639059 
L 339.459174 298.639059 
L 354.216198 291.681882 
L 368.973223 300.626824 
L 383.730248 298.639059 
L 398.487273 286.712471 
L 398.487273 267.828706 
L 398.487273 267.828706 
L 383.730248 280.749176 
L 368.973223 290.688 
L 354.216198 280.749176 
L 339.459174 282.736941 
L 324.702149 287.706353 
L 309.945124 295.657412 
L 295.188099 255.902118 
L 280.431074 263.853176 
L 265.67405 260.871529 
L 250.917025 264.847059 
L 236.16 259.877647 
L 221.402975 276.773647 
L 206.64595 253.914353 
L 191.888926 264.847059 
L 177.131901 250.932706 
L 162.374876 272.798118 
L 147.617851 272.798118 
L 132.860826 267.828706 
L 118.103802 276.773647 
L 103.346777 270.810353 
L 88.589752 234.036706 
L 73.832727 151.544471 
z
" clip-path="url(#p5f233d8d12)" style="fill: #ff7f0e"/>
   </g>
   <g id="PolyCollection_3">
    <path d="M 73.832727 150.550588 
L 73.832727 151.544471 
L 88.589752 234.036706 
L 103.346777 270.810353 
L 118.103802 276.773647 
L 132.860826 267.828706 
L 147.617851 272.798118 
L 162.374876 272.798118 
L 177.131901 250.932706 
L 191.888926 264.847059 
L 206.64595 253.914353 
L 221.402975 276.773647 
L 236.16 259.877647 
L 250.917025 264.847059 
L 265.67405 260.871529 
L 280.431074 263.853176 
L 295.188099 255.902118 
L 309.945124 295.657412 
L 324.702149 287.706353 
L 339.459174 282.736941 
L 354.216198 280.749176 
L 368.973223 290.688 
L 383.730248 280.749176 
L 398.487273 267.828706 
L 398.487273 258.883765 
L 398.487273 258.883765 
L 383.730248 265.840941 
L 368.973223 276.773647 
L 354.216198 267.828706 
L 339.459174 267.828706 
L 324.702149 269.816471 
L 309.945124 279.755294 
L 295.188099 240 
L 280.431074 245.963294 
L 265.67405 245.963294 
L 250.917025 247.951059 
L 236.16 243.975529 
L 221.402975 265.840941 
L 206.64595 243.975529 
L 191.888926 255.902118 
L 177.131901 243.975529 
L 162.374876 264.847059 
L 147.617851 264.847059 
L 132.860826 259.877647 
L 118.103802 269.816471 
L 103.346777 262.859294 
L 88.589752 224.097882 
L 73.832727 150.550588 
z
" clip-path="url(#p5f233d8d12)" style="fill: #2ca02c"/>
   </g>
   <g id="PolyCollection_4">
    <path d="M 73.832727 149.556706 
L 73.832727 150.550588 
L 88.589752 224.097882 
L 103.346777 262.859294 
L 118.103802 269.816471 
L 132.860826 259.877647 
L 147.617851 264.847059 
L 162.374876 264.847059 
L 177.131901 243.975529 
L 191.888926 255.902118 
L 206.64595 243.975529 
L 221.402975 265.840941 
L 236.16 243.975529 
L 250.917025 247.951059 
L 265.67405 245.963294 
L 280.431074 245.963294 
L 295.188099 240 
L 309.945124 279.755294 
L 324.702149 269.816471 
L 339.459174 267.828706 
L 354.216198 267.828706 
L 368.973223 276.773647 
L 383.730248 265.840941 
L 398.487273 258.883765 
L 398.487273 255.902118 
L 398.487273 255.902118 
L 383.730248 261.865412 
L 368.973223 271.804235 
L 354.216198 263.853176 
L 339.459174 264.847059 
L 324.702149 265.840941 
L 309.945124 276.773647 
L 295.188099 236.024471 
L 280.431074 242.981647 
L 265.67405 241.987765 
L 250.917025 245.963294 
L 236.16 240.993882 
L 221.402975 263.853176 
L 206.64595 240.993882 
L 191.888926 253.914353 
L 177.131901 240 
L 162.374876 261.865412 
L 147.617851 261.865412 
L 132.860826 257.889882 
L 118.103802 266.834824 
L 103.346777 258.883765 
L 88.589752 221.116235 
L 73.832727 149.556706 
z
" clip-path="url(#p5f233d8d12)" style="fill: #d62728"/>
   </g>
   <g id="PolyCollection_5">
    <path d="M 73.832727 119.740235 
L 73.832727 149.556706 
L 88.589752 221.116235 
L 103.346777 258.883765 
L 118.103802 266.834824 
L 132.860826 257.889882 
L 147.617851 261.865412 
L 162.374876 261.865412 
L 177.131901 240 
L 191.888926 253.914353 
L 206.64595 240.993882 
L 221.402975 263.853176 
L 236.16 240.993882 
L 250.917025 245.963294 
L 265.67405 241.987765 
L 280.431074 242.981647 
L 295.188099 236.024471 
L 309.945124 276.773647 
L 324.702149 265.840941 
L 339.459174 264.847059 
L 354.216198 263.853176 
L 368.973223 271.804235 
L 383.730248 261.865412 
L 398.487273 255.902118 
L 398.487273 236.024471 
L 398.487273 236.024471 
L 383.730248 240.993882 
L 368.973223 239.006118 
L 354.216198 236.024471 
L 339.459174 244.969412 
L 324.702149 251.926588 
L 309.945124 254.908235 
L 295.188099 219.128471 
L 280.431074 233.042824 
L 265.67405 228.073412 
L 250.917025 237.018353 
L 236.16 234.036706 
L 221.402975 256.896 
L 206.64595 235.030588 
L 191.888926 248.944941 
L 177.131901 236.024471 
L 162.374876 259.877647 
L 147.617851 250.932706 
L 132.860826 235.030588 
L 118.103802 259.877647 
L 103.346777 251.926588 
L 88.589752 202.232471 
L 73.832727 119.740235 
z
" clip-path="url(#p5f233d8d12)" style="fill: #9467bd"/>
   </g>
   <g id="PolyCollection_6">
    <path d="M 73.832727 103.838118 
L 73.832727 119.740235 
L 88.589752 202.232471 
L 103.346777 251.926588 
L 118.103802 259.877647 
L 132.860826 235.030588 
L 147.617851 250.932706 
L 162.374876 259.877647 
L 177.131901 236.024471 
L 191.888926 248.944941 
L 206.64595 235.030588 
L 221.402975 256.896 
L 236.16 234.036706 
L 250.917025 237.018353 
L 265.67405 228.073412 
L 280.431074 233.042824 
L 295.188099 219.128471 
L 309.945124 254.908235 
L 324.702149 251.926588 
L 339.459174 244.969412 
L 354.216198 236.024471 
L 368.973223 239.006118 
L 383.730248 240.993882 
L 398.487273 236.024471 
L 398.487273 235.030588 
L 398.487273 235.030588 
L 383.730248 217.140706 
L 368.973223 207.201882 
L 354.216198 214.159059 
L 339.459174 220.122353 
L 324.702149 229.067294 
L 309.945124 233.042824 
L 295.188099 191.299765 
L 280.431074 201.238588 
L 265.67405 199.250824 
L 250.917025 217.140706 
L 236.16 228.073412 
L 221.402975 240.993882 
L 206.64595 217.140706 
L 191.888926 222.110118 
L 177.131901 218.134588 
L 162.374876 223.104 
L 147.617851 234.036706 
L 132.860826 209.189647 
L 118.103802 209.189647 
L 103.346777 203.226353 
L 88.589752 166.452706 
L 73.832727 103.838118 
z
" clip-path="url(#p5f233d8d12)" style="fill: #8c564b"/>
   </g>
   <g id="PolyCollection_7">
    <path d="M 73.832727 102.844235 
L 73.832727 103.838118 
L 88.589752 166.452706 
L 103.346777 203.226353 
L 118.103802 209.189647 
L 132.860826 209.189647 
L 147.617851 234.036706 
L 162.374876 223.104 
L 177.131901 218.134588 
L 191.888926 222.110118 
L 206.64595 217.140706 
L 221.402975 240.993882 
L 236.16 228.073412 
L 250.917025 217.140706 
L 265.67405 199.250824 
L 280.431074 201.238588 
L 295.188099 191.299765 
L 309.945124 233.042824 
L 324.702149 229.067294 
L 339.459174 220.122353 
L 354.216198 214.159059 
L 368.973223 207.201882 
L 383.730248 217.140706 
L 398.487273 235.030588 
L 398.487273 232.048941 
L 398.487273 232.048941 
L 383.730248 215.152941 
L 368.973223 204.220235 
L 354.216198 212.171294 
L 339.459174 217.140706 
L 324.702149 227.079529 
L 309.945124 230.061176 
L 295.188099 188.318118 
L 280.431074 197.263059 
L 265.67405 196.269176 
L 250.917025 215.152941 
L 236.16 225.091765 
L 221.402975 237.018353 
L 206.64595 214.159059 
L 191.888926 220.122353 
L 177.131901 214.159059 
L 162.374876 220.122353 
L 147.617851 231.055059 
L 132.860826 204.220235 
L 118.103802 205.214118 
L 103.346777 198.256941 
L 88.589752 162.477176 
L 73.832727 102.844235 
z
" clip-path="url(#p5f233d8d12)" style="fill: #e377c2"/>
   </g>
   <g id="PolyCollection_8">
    <path d="M 73.832727 101.850353 
L 73.832727 102.844235 
L 88.589752 162.477176 
L 103.346777 198.256941 
L 118.103802 205.214118 
L 132.860826 204.220235 
L 147.617851 231.055059 
L 162.374876 220.122353 
L 177.131901 214.159059 
L 191.888926 220.122353 
L 206.64595 214.159059 
L 221.402975 237.018353 
L 236.16 225.091765 
L 250.917025 215.152941 
L 265.67405 196.269176 
L 280.431074 197.263059 
L 295.188099 188.318118 
L 309.945124 230.061176 
L 324.702149 227.079529 
L 339.459174 217.140706 
L 354.216198 212.171294 
L 368.973223 204.220235 
L 383.730248 215.152941 
L 398.487273 232.048941 
L 398.487273 221.116235 
L 398.487273 221.116235 
L 383.730248 203.226353 
L 368.973223 198.256941 
L 354.216198 201.238588 
L 339.459174 213.165176 
L 324.702149 205.214118 
L 309.945124 209.189647 
L 295.188099 174.403765 
L 280.431074 178.379294 
L 265.67405 174.403765 
L 250.917025 177.385412 
L 236.16 196.269176 
L 221.402975 192.293647 
L 206.64595 193.287529 
L 191.888926 197.263059 
L 177.131901 206.208 
L 162.374876 217.140706 
L 147.617851 228.073412 
L 132.860826 200.244706 
L 118.103802 202.232471 
L 103.346777 195.275294 
L 88.589752 160.489412 
L 73.832727 101.850353 
z
" clip-path="url(#p5f233d8d12)" style="fill: #7f7f7f"/>
   </g>
   <g id="PolyCollection_9">
    <path d="M 73.832727 100.856471 
L 73.832727 101.850353 
L 88.589752 160.489412 
L 103.346777 195.275294 
L 118.103802 202.232471 
L 132.860826 200.244706 
L 147.617851 228.073412 
L 162.374876 217.140706 
L 177.131901 206.208 
L 191.888926 197.263059 
L 206.64595 193.287529 
L 221.402975 192.293647 
L 236.16 196.269176 
L 250.917025 177.385412 
L 265.67405 174.403765 
L 280.431074 178.379294 
L 295.188099 174.403765 
L 309.945124 209.189647 
L 324.702149 205.214118 
L 339.459174 213.165176 
L 354.216198 201.238588 
L 368.973223 198.256941 
L 383.730248 203.226353 
L 398.487273 221.116235 
L 398.487273 217.140706 
L 398.487273 217.140706 
L 383.730248 199.250824 
L 368.973223 193.287529 
L 354.216198 198.256941 
L 339.459174 208.195765 
L 324.702149 201.238588 
L 309.945124 206.208 
L 295.188099 172.416 
L 280.431074 175.397647 
L 265.67405 172.416 
L 250.917025 174.403765 
L 236.16 194.281412 
L 221.402975 189.312 
L 206.64595 191.299765 
L 191.888926 193.287529 
L 177.131901 202.232471 
L 162.374876 214.159059 
L 147.617851 225.091765 
L 132.860826 198.256941 
L 118.103802 197.263059 
L 103.346777 191.299765 
L 88.589752 157.507765 
L 73.832727 100.856471 
z
" clip-path="url(#p5f233d8d12)" style="fill: #bcbd22"/>
   </g>
   <g id="PolyCollection_10">
    <path d="M 73.832727 91.911529 
L 73.832727 100.856471 
L 88.589752 157.507765 
L 103.346777 191.299765 
L 118.103802 197.263059 
L 132.860826 198.256941 
L 147.617851 225.091765 
L 162.374876 214.159059 
L 177.131901 202.232471 
L 191.888926 193.287529 
L 206.64595 191.299765 
L 221.402975 189.312 
L 236.16 194.281412 
L 250.917025 174.403765 
L 265.67405 172.416 
L 280.431074 175.397647 
L 295.188099 172.416 
L 309.945124 206.208 
L 324.702149 201.238588 
L 339.459174 208.195765 
L 354.216198 198.256941 
L 368.973223 193.287529 
L 383.730248 199.250824 
L 398.487273 217.140706 
L 398.487273 207.201882 
L 398.487273 207.201882 
L 383.730248 192.293647 
L 368.973223 183.348706 
L 354.216198 188.318118 
L 339.459174 189.312 
L 324.702149 190.305882 
L 309.945124 189.312 
L 295.188099 157.507765 
L 280.431074 159.495529 
L 265.67405 157.507765 
L 250.917025 166.452706 
L 236.16 184.342588 
L 221.402975 178.379294 
L 206.64595 175.397647 
L 191.888926 169.434353 
L 177.131901 187.324235 
L 162.374876 180.367059 
L 147.617851 175.397647 
L 132.860826 183.348706 
L 118.103802 174.403765 
L 103.346777 164.464941 
L 88.589752 147.568941 
L 73.832727 91.911529 
z
" clip-path="url(#p5f233d8d12)" style="fill: #17becf"/>
   </g>
   <g id="PolyCollection_11">
    <path d="M 73.832727 86.942118 
L 73.832727 91.911529 
L 88.589752 147.568941 
L 103.346777 164.464941 
L 118.103802 174.403765 
L 132.860826 183.348706 
L 147.617851 175.397647 
L 162.374876 180.367059 
L 177.131901 187.324235 
L 191.888926 169.434353 
L 206.64595 175.397647 
L 221.402975 178.379294 
L 236.16 184.342588 
L 250.917025 166.452706 
L 265.67405 157.507765 
L 280.431074 159.495529 
L 295.188099 157.507765 
L 309.945124 189.312 
L 324.702149 190.305882 
L 339.459174 189.312 
L 354.216198 188.318118 
L 368.973223 183.348706 
L 383.730248 192.293647 
L 398.487273 207.201882 
L 398.487273 204.220235 
L 398.487273 204.220235 
L 383.730248 190.305882 
L 368.973223 180.367059 
L 354.216198 186.330353 
L 339.459174 186.330353 
L 324.702149 188.318118 
L 309.945124 186.330353 
L 295.188099 155.52 
L 280.431074 157.507765 
L 265.67405 156.513882 
L 250.917025 163.471059 
L 236.16 180.367059 
L 221.402975 176.391529 
L 206.64595 172.416 
L 191.888926 167.446588 
L 177.131901 183.348706 
L 162.374876 176.391529 
L 147.617851 171.422118 
L 132.860826 180.367059 
L 118.103802 172.416 
L 103.346777 161.483294 
L 88.589752 145.581176 
L 73.832727 86.942118 
z
" clip-path="url(#p5f233d8d12)" style="fill: #1f77b4"/>
   </g>
   <g id="PolyCollection_12">
    <path d="M 73.832727 85.948235 
L 73.832727 86.942118 
L 88.589752 145.581176 
L 103.346777 161.483294 
L 118.103802 172.416 
L 132.860826 180.367059 
L 147.617851 171.422118 
L 162.374876 176.391529 
L 177.131901 183.348706 
L 191.888926 167.446588 
L 206.64595 172.416 
L 221.402975 176.391529 
L 236.16 180.367059 
L 250.917025 163.471059 
L 265.67405 156.513882 
L 280.431074 157.507765 
L 295.188099 155.52 
L 309.945124 186.330353 
L 324.702149 188.318118 
L 339.459174 186.330353 
L 354.216198 186.330353 
L 368.973223 180.367059 
L 383.730248 190.305882 
L 398.487273 204.220235 
L 398.487273 202.232471 
L 398.487273 202.232471 
L 383.730248 187.324235 
L 368.973223 178.379294 
L 354.216198 184.342588 
L 339.459174 183.348706 
L 324.702149 186.330353 
L 309.945124 183.348706 
L 295.188099 153.532235 
L 280.431074 155.52 
L 265.67405 154.526118 
L 250.917025 161.483294 
L 236.16 178.379294 
L 221.402975 173.409882 
L 206.64595 169.434353 
L 191.888926 163.471059 
L 177.131901 178.379294 
L 162.374876 172.416 
L 147.617851 167.446588 
L 132.860826 175.397647 
L 118.103802 168.440471 
L 103.346777 157.507765 
L 88.589752 143.593412 
L 73.832727 85.948235 
z
" clip-path="url(#p5f233d8d12)" style="fill: #ff7f0e"/>
   </g>
   <g id="PolyCollection_13">
    <path d="M 73.832727 84.954353 
L 73.832727 85.948235 
L 88.589752 143.593412 
L 103.346777 157.507765 
L 118.103802 168.440471 
L 132.860826 175.397647 
L 147.617851 167.446588 
L 162.374876 172.416 
L 177.131901 178.379294 
L 191.888926 163.471059 
L 206.64595 169.434353 
L 221.402975 173.409882 
L 236.16 178.379294 
L 250.917025 161.483294 
L 265.67405 154.526118 
L 280.431074 155.52 
L 295.188099 153.532235 
L 309.945124 183.348706 
L 324.702149 186.330353 
L 339.459174 183.348706 
L 354.216198 184.342588 
L 368.973223 178.379294 
L 383.730248 187.324235 
L 398.487273 202.232471 
L 398.487273 198.256941 
L 398.487273 198.256941 
L 383.730248 184.342588 
L 368.973223 176.391529 
L 354.216198 182.354824 
L 339.459174 180.367059 
L 324.702149 182.354824 
L 309.945124 180.367059 
L 295.188099 149.556706 
L 280.431074 152.538353 
L 265.67405 152.538353 
L 250.917025 158.501647 
L 236.16 174.403765 
L 221.402975 170.428235 
L 206.64595 165.458824 
L 191.888926 160.489412 
L 177.131901 174.403765 
L 162.374876 167.446588 
L 147.617851 163.471059 
L 132.860826 171.422118 
L 118.103802 162.477176 
L 103.346777 153.532235 
L 88.589752 138.624 
L 73.832727 84.954353 
z
" clip-path="url(#p5f233d8d12)" style="fill: #2ca02c"/>
   </g>
   <g id="PolyCollection_14">
    <path d="M 73.832727 83.960471 
L 73.832727 84.954353 
L 88.589752 138.624 
L 103.346777 153.532235 
L 118.103802 162.477176 
L 132.860826 171.422118 
L 147.617851 163.471059 
L 162.374876 167.446588 
L 177.131901 174.403765 
L 191.888926 160.489412 
L 206.64595 165.458824 
L 221.402975 170.428235 
L 236.16 174.403765 
L 250.917025 158.501647 
L 265.67405 152.538353 
L 280.431074 152.538353 
L 295.188099 149.556706 
L 309.945124 180.367059 
L 324.702149 182.354824 
L 339.459174 180.367059 
L 354.216198 182.354824 
L 368.973223 176.391529 
L 383.730248 184.342588 
L 398.487273 198.256941 
L 398.487273 198.256941 
L 398.487273 198.256941 
L 383.730248 184.342588 
L 368.973223 173.409882 
L 354.216198 178.379294 
L 339.459174 178.379294 
L 324.702149 180.367059 
L 309.945124 177.385412 
L 295.188099 145.581176 
L 280.431074 149.556706 
L 265.67405 148.562824 
L 250.917025 155.52 
L 236.16 170.428235 
L 221.402975 167.446588 
L 206.64595 161.483294 
L 191.888926 157.507765 
L 177.131901 170.428235 
L 162.374876 164.464941 
L 147.617851 159.495529 
L 132.860826 168.440471 
L 118.103802 159.495529 
L 103.346777 151.544471 
L 88.589752 133.654588 
L 73.832727 83.960471 
z
" clip-path="url(#p5f233d8d12)" style="fill: #d62728"/>
   </g>
   <g id="PolyCollection_15">
    <path d="M 73.832727 82.966588 
L 73.832727 83.960471 
L 88.589752 133.654588 
L 103.346777 151.544471 
L 118.103802 159.495529 
L 132.860826 168.440471 
L 147.617851 159.495529 
L 162.374876 164.464941 
L 177.131901 170.428235 
L 191.888926 157.507765 
L 206.64595 161.483294 
L 221.402975 167.446588 
L 236.16 170.428235 
L 250.917025 155.52 
L 265.67405 148.562824 
L 280.431074 149.556706 
L 295.188099 145.581176 
L 309.945124 177.385412 
L 324.702149 180.367059 
L 339.459174 178.379294 
L 354.216198 178.379294 
L 368.973223 173.409882 
L 383.730248 184.342588 
L 398.487273 198.256941 
L 398.487273 196.269176 
L 398.487273 196.269176 
L 383.730248 182.354824 
L 368.973223 172.416 
L 354.216198 175.397647 
L 339.459174 176.391529 
L 324.702149 178.379294 
L 309.945124 174.403765 
L 295.188099 143.593412 
L 280.431074 146.575059 
L 265.67405 146.575059 
L 250.917025 153.532235 
L 236.16 168.440471 
L 221.402975 165.458824 
L 206.64595 159.495529 
L 191.888926 155.52 
L 177.131901 166.452706 
L 162.374876 161.483294 
L 147.617851 156.513882 
L 132.860826 166.452706 
L 118.103802 155.52 
L 103.346777 146.575059 
L 88.589752 131.666824 
L 73.832727 82.966588 
z
" clip-path="url(#p5f233d8d12)" style="fill: #9467bd"/>
   </g>
   <g id="PolyCollection_16">
    <path d="M 73.832727 81.972706 
L 73.832727 82.966588 
L 88.589752 131.666824 
L 103.346777 146.575059 
L 118.103802 155.52 
L 132.860826 166.452706 
L 147.617851 156.513882 
L 162.374876 161.483294 
L 177.131901 166.452706 
L 191.888926 155.52 
L 206.64595 159.495529 
L 221.402975 165.458824 
L 236.16 168.440471 
L 250.917025 153.532235 
L 265.67405 146.575059 
L 280.431074 146.575059 
L 295.188099 143.593412 
L 309.945124 174.403765 
L 324.702149 178.379294 
L 339.459174 176.391529 
L 354.216198 175.397647 
L 368.973223 172.416 
L 383.730248 182.354824 
L 398.487273 196.269176 
L 398.487273 186.330353 
L 398.487273 186.330353 
L 383.730248 169.434353 
L 368.973223 160.489412 
L 354.216198 164.464941 
L 339.459174 167.446588 
L 324.702149 166.452706 
L 309.945124 162.477176 
L 295.188099 135.642353 
L 280.431074 135.642353 
L 265.67405 138.624 
L 250.917025 141.605647 
L 236.16 156.513882 
L 221.402975 151.544471 
L 206.64595 148.562824 
L 191.888926 143.593412 
L 177.131901 153.532235 
L 162.374876 148.562824 
L 147.617851 144.587294 
L 132.860826 151.544471 
L 118.103802 138.624 
L 103.346777 127.691294 
L 88.589752 110.795294 
L 73.832727 81.972706 
z
" clip-path="url(#p5f233d8d12)" style="fill: #8c564b"/>
   </g>
   <g id="PolyCollection_17">
    <path d="M 73.832727 80.978824 
L 73.832727 81.972706 
L 88.589752 110.795294 
L 103.346777 127.691294 
L 118.103802 138.624 
L 132.860826 151.544471 
L 147.617851 144.587294 
L 162.374876 148.562824 
L 177.131901 153.532235 
L 191.888926 143.593412 
L 206.64595 148.562824 
L 221.402975 151.544471 
L 236.16 156.513882 
L 250.917025 141.605647 
L 265.67405 138.624 
L 280.431074 135.642353 
L 295.188099 135.642353 
L 309.945124 162.477176 
L 324.702149 166.452706 
L 339.459174 167.446588 
L 354.216198 164.464941 
L 368.973223 160.489412 
L 383.730248 169.434353 
L 398.487273 186.330353 
L 398.487273 144.587294 
L 398.487273 144.587294 
L 383.730248 131.666824 
L 368.973223 131.666824 
L 354.216198 145.581176 
L 339.459174 143.593412 
L 324.702149 136.636235 
L 309.945124 136.636235 
L 295.188099 120.734118 
L 280.431074 120.734118 
L 265.67405 120.734118 
L 250.917025 131.666824 
L 236.16 149.556706 
L 221.402975 146.575059 
L 206.64595 145.581176 
L 191.888926 141.605647 
L 177.131901 147.568941 
L 162.374876 144.587294 
L 147.617851 142.599529 
L 132.860826 145.581176 
L 118.103802 131.666824 
L 103.346777 121.728 
L 88.589752 107.813647 
L 73.832727 80.978824 
z
" clip-path="url(#p5f233d8d12)" style="fill: #e377c2"/>
   </g>
   <g id="PolyCollection_18">
    <path d="M 73.832727 79.984941 
L 73.832727 80.978824 
L 88.589752 107.813647 
L 103.346777 121.728 
L 118.103802 131.666824 
L 132.860826 145.581176 
L 147.617851 142.599529 
L 162.374876 144.587294 
L 177.131901 147.568941 
L 191.888926 141.605647 
L 206.64595 145.581176 
L 221.402975 146.575059 
L 236.16 149.556706 
L 250.917025 131.666824 
L 265.67405 120.734118 
L 280.431074 120.734118 
L 295.188099 120.734118 
L 309.945124 136.636235 
L 324.702149 136.636235 
L 339.459174 143.593412 
L 354.216198 145.581176 
L 368.973223 131.666824 
L 383.730248 131.666824 
L 398.487273 144.587294 
L 398.487273 142.599529 
L 398.487273 142.599529 
L 383.730248 129.679059 
L 368.973223 129.679059 
L 354.216198 144.587294 
L 339.459174 140.611765 
L 324.702149 134.648471 
L 309.945124 133.654588 
L 295.188099 118.746353 
L 280.431074 118.746353 
L 265.67405 118.746353 
L 250.917025 129.679059 
L 236.16 146.575059 
L 221.402975 144.587294 
L 206.64595 140.611765 
L 191.888926 139.617882 
L 177.131901 145.581176 
L 162.374876 141.605647 
L 147.617851 139.617882 
L 132.860826 142.599529 
L 118.103802 126.697412 
L 103.346777 117.752471 
L 88.589752 104.832 
L 73.832727 79.984941 
z
" clip-path="url(#p5f233d8d12)" style="fill: #7f7f7f"/>
   </g>
   <g id="PolyCollection_19">
    <path d="M 73.832727 78.991059 
L 73.832727 79.984941 
L 88.589752 104.832 
L 103.346777 117.752471 
L 118.103802 126.697412 
L 132.860826 142.599529 
L 147.617851 139.617882 
L 162.374876 141.605647 
L 177.131901 145.581176 
L 191.888926 139.617882 
L 206.64595 140.611765 
L 221.402975 144.587294 
L 236.16 146.575059 
L 250.917025 129.679059 
L 265.67405 118.746353 
L 280.431074 118.746353 
L 295.188099 118.746353 
L 309.945124 133.654588 
L 324.702149 134.648471 
L 339.459174 140.611765 
L 354.216198 144.587294 
L 368.973223 129.679059 
L 383.730248 129.679059 
L 398.487273 142.599529 
L 398.487273 140.611765 
L 398.487273 140.611765 
L 383.730248 126.697412 
L 368.973223 127.691294 
L 354.216198 142.599529 
L 339.459174 137.630118 
L 324.702149 132.660706 
L 309.945124 131.666824 
L 295.188099 115.764706 
L 280.431074 116.758588 
L 265.67405 115.764706 
L 250.917025 126.697412 
L 236.16 144.587294 
L 221.402975 142.599529 
L 206.64595 137.630118 
L 191.888926 137.630118 
L 177.131901 143.593412 
L 162.374876 137.630118 
L 147.617851 136.636235 
L 132.860826 139.617882 
L 118.103802 122.721882 
L 103.346777 113.776941 
L 88.589752 102.844235 
L 73.832727 78.991059 
z
" clip-path="url(#p5f233d8d12)" style="fill: #bcbd22"/>
   </g>
   <g id="PolyCollection_20">
    <path d="M 73.832727 76.009412 
L 73.832727 78.991059 
L 88.589752 102.844235 
L 103.346777 113.776941 
L 118.103802 122.721882 
L 132.860826 139.617882 
L 147.617851 136.636235 
L 162.374876 137.630118 
L 177.131901 143.593412 
L 191.888926 137.630118 
L 206.64595 137.630118 
L 221.402975 142.599529 
L 236.16 144.587294 
L 250.917025 126.697412 
L 265.67405 115.764706 
L 280.431074 116.758588 
L 295.188099 115.764706 
L 309.945124 131.666824 
L 324.702149 132.660706 
L 339.459174 137.630118 
L 354.216198 142.599529 
L 368.973223 127.691294 
L 383.730248 126.697412 
L 398.487273 140.611765 
L 398.487273 138.624 
L 398.487273 138.624 
L 383.730248 125.703529 
L 368.973223 124.709647 
L 354.216198 139.617882 
L 339.459174 135.642353 
L 324.702149 129.679059 
L 309.945124 129.679059 
L 295.188099 113.776941 
L 280.431074 112.783059 
L 265.67405 110.795294 
L 250.917025 122.721882 
L 236.16 141.605647 
L 221.402975 140.611765 
L 206.64595 133.654588 
L 191.888926 133.654588 
L 177.131901 140.611765 
L 162.374876 135.642353 
L 147.617851 133.654588 
L 132.860826 135.642353 
L 118.103802 117.752471 
L 103.346777 109.801412 
L 88.589752 101.850353 
L 73.832727 76.009412 
z
" clip-path="url(#p5f233d8d12)" style="fill: #17becf"/>
   </g>
   <g id="PolyCollection_21">
    <path d="M 73.832727 75.015529 
L 73.832727 76.009412 
L 88.589752 101.850353 
L 103.346777 109.801412 
L 118.103802 117.752471 
L 132.860826 135.642353 
L 147.617851 133.654588 
L 162.374876 135.642353 
L 177.131901 140.611765 
L 191.888926 133.654588 
L 206.64595 133.654588 
L 221.402975 140.611765 
L 236.16 141.605647 
L 250.917025 122.721882 
L 265.67405 110.795294 
L 280.431074 112.783059 
L 295.188099 113.776941 
L 309.945124 129.679059 
L 324.702149 129.679059 
L 339.459174 135.642353 
L 354.216198 139.617882 
L 368.973223 124.709647 
L 383.730248 125.703529 
L 398.487273 138.624 
L 398.487273 136.636235 
L 398.487273 136.636235 
L 383.730248 122.721882 
L 368.973223 122.721882 
L 354.216198 137.630118 
L 339.459174 133.654588 
L 324.702149 126.697412 
L 309.945124 125.703529 
L 295.188099 110.795294 
L 280.431074 110.795294 
L 265.67405 107.813647 
L 250.917025 118.746353 
L 236.16 138.624 
L 221.402975 138.624 
L 206.64595 132.660706 
L 191.888926 129.679059 
L 177.131901 134.648471 
L 162.374876 130.672941 
L 147.617851 129.679059 
L 132.860826 132.660706 
L 118.103802 114.770824 
L 103.346777 106.819765 
L 88.589752 98.868706 
L 73.832727 75.015529 
z
" clip-path="url(#p5f233d8d12)" style="fill: #1f77b4"/>
   </g>
   <g id="PolyCollection_22">
    <path d="M 73.832727 68.058353 
L 73.832727 75.015529 
L 88.589752 98.868706 
L 103.346777 106.819765 
L 118.103802 114.770824 
L 132.860826 132.660706 
L 147.617851 129.679059 
L 162.374876 130.672941 
L 177.131901 134.648471 
L 191.888926 129.679059 
L 206.64595 132.660706 
L 221.402975 138.624 
L 236.16 138.624 
L 250.917025 118.746353 
L 265.67405 107.813647 
L 280.431074 110.795294 
L 295.188099 110.795294 
L 309.945124 125.703529 
L 324.702149 126.697412 
L 339.459174 133.654588 
L 354.216198 137.630118 
L 368.973223 122.721882 
L 383.730248 122.721882 
L 398.487273 136.636235 
L 398.487273 96.880941 
L 398.487273 96.880941 
L 383.730248 93.899294 
L 368.973223 98.868706 
L 354.216198 99.862588 
L 339.459174 97.874824 
L 324.702149 97.874824 
L 309.945124 98.868706 
L 295.188099 91.911529 
L 280.431074 92.905412 
L 265.67405 97.874824 
L 250.917025 103.838118 
L 236.16 109.801412 
L 221.402975 105.825882 
L 206.64595 98.868706 
L 191.888926 97.874824 
L 177.131901 95.887059 
L 162.374876 103.838118 
L 147.617851 94.893176 
L 132.860826 93.899294 
L 118.103802 91.911529 
L 103.346777 87.936 
L 88.589752 81.972706 
L 73.832727 68.058353 
z
" clip-path="url(#p5f233d8d12)" style="fill: #ff7f0e"/>
   </g>
   <g id="PolyCollection_23">
    <path d="M 73.832727 67.064471 
L 73.832727 68.058353 
L 88.589752 81.972706 
L 103.346777 87.936 
L 118.103802 91.911529 
L 132.860826 93.899294 
L 147.617851 94.893176 
L 162.374876 103.838118 
L 177.131901 95.887059 
L 191.888926 97.874824 
L 206.64595 98.868706 
L 221.402975 105.825882 
L 236.16 109.801412 
L 250.917025 103.838118 
L 265.67405 97.874824 
L 280.431074 92.905412 
L 295.188099 91.911529 
L 309.945124 98.868706 
L 324.702149 97.874824 
L 339.459174 97.874824 
L 354.216198 99.862588 
L 368.973223 98.868706 
L 383.730248 93.899294 
L 398.487273 96.880941 
L 398.487273 85.948235 
L 398.487273 85.948235 
L 383.730248 85.948235 
L 368.973223 88.929882 
L 354.216198 87.936 
L 339.459174 86.942118 
L 324.702149 86.942118 
L 309.945124 87.936 
L 295.188099 80.978824 
L 280.431074 81.972706 
L 265.67405 90.917647 
L 250.917025 92.905412 
L 236.16 97.874824 
L 221.402975 94.893176 
L 206.64595 87.936 
L 191.888926 89.923765 
L 177.131901 89.923765 
L 162.374876 96.880941 
L 147.617851 88.929882 
L 132.860826 88.929882 
L 118.103802 87.936 
L 103.346777 85.948235 
L 88.589752 79.984941 
L 73.832727 67.064471 
z
" clip-path="url(#p5f233d8d12)" style="fill: #2ca02c"/>
   </g>
   <g id="PolyCollection_24">
    <path d="M 73.832727 66.070588 
L 73.832727 67.064471 
L 88.589752 79.984941 
L 103.346777 85.948235 
L 118.103802 87.936 
L 132.860826 88.929882 
L 147.617851 88.929882 
L 162.374876 96.880941 
L 177.131901 89.923765 
L 191.888926 89.923765 
L 206.64595 87.936 
L 221.402975 94.893176 
L 236.16 97.874824 
L 250.917025 92.905412 
L 265.67405 90.917647 
L 280.431074 81.972706 
L 295.188099 80.978824 
L 309.945124 87.936 
L 324.702149 86.942118 
L 339.459174 86.942118 
L 354.216198 87.936 
L 368.973223 88.929882 
L 383.730248 85.948235 
L 398.487273 85.948235 
L 398.487273 82.966588 
L 398.487273 82.966588 
L 383.730248 83.960471 
L 368.973223 85.948235 
L 354.216198 85.948235 
L 339.459174 83.960471 
L 324.702149 84.954353 
L 309.945124 85.948235 
L 295.188099 77.997176 
L 280.431074 77.997176 
L 265.67405 87.936 
L 250.917025 89.923765 
L 236.16 93.899294 
L 221.402975 91.911529 
L 206.64595 85.948235 
L 191.888926 86.942118 
L 177.131901 84.954353 
L 162.374876 92.905412 
L 147.617851 85.948235 
L 132.860826 83.960471 
L 118.103802 83.960471 
L 103.346777 82.966588 
L 88.589752 77.997176 
L 73.832727 66.070588 
z
" clip-path="url(#p5f233d8d12)" style="fill: #d62728"/>
   </g>
   <g id="PolyCollection_25">
    <path d="M 73.832727 65.076706 
L 73.832727 66.070588 
L 88.589752 77.997176 
L 103.346777 82.966588 
L 118.103802 83.960471 
L 132.860826 83.960471 
L 147.617851 85.948235 
L 162.374876 92.905412 
L 177.131901 84.954353 
L 191.888926 86.942118 
L 206.64595 85.948235 
L 221.402975 91.911529 
L 236.16 93.899294 
L 250.917025 89.923765 
L 265.67405 87.936 
L 280.431074 77.997176 
L 295.188099 77.997176 
L 309.945124 85.948235 
L 324.702149 84.954353 
L 339.459174 83.960471 
L 354.216198 85.948235 
L 368.973223 85.948235 
L 383.730248 83.960471 
L 398.487273 82.966588 
L 398.487273 80.978824 
L 398.487273 80.978824 
L 383.730248 81.972706 
L 368.973223 83.960471 
L 354.216198 82.966588 
L 339.459174 81.972706 
L 324.702149 81.972706 
L 309.945124 83.960471 
L 295.188099 75.015529 
L 280.431074 76.009412 
L 265.67405 84.954353 
L 250.917025 85.948235 
L 236.16 90.917647 
L 221.402975 89.923765 
L 206.64595 81.972706 
L 191.888926 83.960471 
L 177.131901 80.978824 
L 162.374876 87.936 
L 147.617851 82.966588 
L 132.860826 78.991059 
L 118.103802 77.997176 
L 103.346777 78.991059 
L 88.589752 74.021647 
L 73.832727 65.076706 
z
" clip-path="url(#p5f233d8d12)" style="fill: #9467bd"/>
   </g>
   <g id="PolyCollection_26">
    <path d="M 73.832727 64.082824 
L 73.832727 65.076706 
L 88.589752 74.021647 
L 103.346777 78.991059 
L 118.103802 77.997176 
L 132.860826 78.991059 
L 147.617851 82.966588 
L 162.374876 87.936 
L 177.131901 80.978824 
L 191.888926 83.960471 
L 206.64595 81.972706 
L 221.402975 89.923765 
L 236.16 90.917647 
L 250.917025 85.948235 
L 265.67405 84.954353 
L 280.431074 76.009412 
L 295.188099 75.015529 
L 309.945124 83.960471 
L 324.702149 81.972706 
L 339.459174 81.972706 
L 354.216198 82.966588 
L 368.973223 83.960471 
L 383.730248 81.972706 
L 398.487273 80.978824 
L 398.487273 78.991059 
L 398.487273 78.991059 
L 383.730248 79.984941 
L 368.973223 80.978824 
L 354.216198 78.991059 
L 339.459174 78.991059 
L 324.702149 79.984941 
L 309.945124 80.978824 
L 295.188099 73.027765 
L 280.431074 73.027765 
L 265.67405 81.972706 
L 250.917025 83.960471 
L 236.16 88.929882 
L 221.402975 86.942118 
L 206.64595 77.997176 
L 191.888926 80.978824 
L 177.131901 77.003294 
L 162.374876 81.972706 
L 147.617851 77.997176 
L 132.860826 75.015529 
L 118.103802 73.027765 
L 103.346777 75.015529 
L 88.589752 72.033882 
L 73.832727 64.082824 
z
" clip-path="url(#p5f233d8d12)" style="fill: #8c564b"/>
   </g>
   <g id="PolyCollection_27">
    <path d="M 73.832727 62.095059 
L 73.832727 64.082824 
L 88.589752 72.033882 
L 103.346777 75.015529 
L 118.103802 73.027765 
L 132.860826 75.015529 
L 147.617851 77.997176 
L 162.374876 81.972706 
L 177.131901 77.003294 
L 191.888926 80.978824 
L 206.64595 77.997176 
L 221.402975 86.942118 
L 236.16 88.929882 
L 250.917025 83.960471 
L 265.67405 81.972706 
L 280.431074 73.027765 
L 295.188099 73.027765 
L 309.945124 80.978824 
L 324.702149 79.984941 
L 339.459174 78.991059 
L 354.216198 78.991059 
L 368.973223 80.978824 
L 383.730248 79.984941 
L 398.487273 78.991059 
L 398.487273 65.076706 
L 398.487273 65.076706 
L 383.730248 68.058353 
L 368.973223 66.070588 
L 354.216198 67.064471 
L 339.459174 66.070588 
L 324.702149 67.064471 
L 309.945124 67.064471 
L 295.188099 62.095059 
L 280.431074 63.088941 
L 265.67405 68.058353 
L 250.917025 69.052235 
L 236.16 67.064471 
L 221.402975 68.058353 
L 206.64595 65.076706 
L 191.888926 70.046118 
L 177.131901 67.064471 
L 162.374876 68.058353 
L 147.617851 64.082824 
L 132.860826 66.070588 
L 118.103802 68.058353 
L 103.346777 71.04 
L 88.589752 70.046118 
L 73.832727 62.095059 
z
" clip-path="url(#p5f233d8d12)" style="fill: #e377c2"/>
   </g>
   <g id="PolyCollection_28">
    <path d="M 73.832727 61.101176 
L 73.832727 62.095059 
L 88.589752 70.046118 
L 103.346777 71.04 
L 118.103802 68.058353 
L 132.860826 66.070588 
L 147.617851 64.082824 
L 162.374876 68.058353 
L 177.131901 67.064471 
L 191.888926 70.046118 
L 206.64595 65.076706 
L 221.402975 68.058353 
L 236.16 67.064471 
L 250.917025 69.052235 
L 265.67405 68.058353 
L 280.431074 63.088941 
L 295.188099 62.095059 
L 309.945124 67.064471 
L 324.702149 67.064471 
L 339.459174 66.070588 
L 354.216198 67.064471 
L 368.973223 66.070588 
L 383.730248 68.058353 
L 398.487273 65.076706 
L 398.487273 61.101176 
L 398.487273 61.101176 
L 383.730248 65.076706 
L 368.973223 62.095059 
L 354.216198 64.082824 
L 339.459174 62.095059 
L 324.702149 64.082824 
L 309.945124 63.088941 
L 295.188099 59.113412 
L 280.431074 60.107294 
L 265.67405 66.070588 
L 250.917025 66.070588 
L 236.16 62.095059 
L 221.402975 64.082824 
L 206.64595 61.101176 
L 191.888926 65.076706 
L 177.131901 62.095059 
L 162.374876 64.082824 
L 147.617851 60.107294 
L 132.860826 64.082824 
L 118.103802 66.070588 
L 103.346777 67.064471 
L 88.589752 66.070588 
L 73.832727 61.101176 
z
" clip-path="url(#p5f233d8d12)" style="fill: #7f7f7f"/>
   </g>
   <g id="PolyCollection_29">
    <path d="M 73.832727 60.107294 
L 73.832727 61.101176 
L 88.589752 66.070588 
L 103.346777 67.064471 
L 118.103802 66.070588 
L 132.860826 64.082824 
L 147.617851 60.107294 
L 162.374876 64.082824 
L 177.131901 62.095059 
L 191.888926 65.076706 
L 206.64595 61.101176 
L 221.402975 64.082824 
L 236.16 62.095059 
L 250.917025 66.070588 
L 265.67405 66.070588 
L 280.431074 60.107294 
L 295.188099 59.113412 
L 309.945124 63.088941 
L 324.702149 64.082824 
L 339.459174 62.095059 
L 354.216198 64.082824 
L 368.973223 62.095059 
L 383.730248 65.076706 
L 398.487273 61.101176 
L 398.487273 59.113412 
L 398.487273 59.113412 
L 383.730248 62.095059 
L 368.973223 60.107294 
L 354.216198 62.095059 
L 339.459174 60.107294 
L 324.702149 62.095059 
L 309.945124 60.107294 
L 295.188099 57.125647 
L 280.431074 57.125647 
L 265.67405 61.101176 
L 250.917025 62.095059 
L 236.16 60.107294 
L 221.402975 63.088941 
L 206.64595 60.107294 
L 191.888926 61.101176 
L 177.131901 60.107294 
L 162.374876 59.113412 
L 147.617851 57.125647 
L 132.860826 61.101176 
L 118.103802 61.101176 
L 103.346777 61.101176 
L 88.589752 61.101176 
L 73.832727 60.107294 
z
" clip-path="url(#p5f233d8d12)" style="fill: #bcbd22"/>
   </g>
   <g id="PolyCollection_30">
    <path d="M 73.832727 59.113412 
L 73.832727 60.107294 
L 88.589752 61.101176 
L 103.346777 61.101176 
L 118.103802 61.101176 
L 132.860826 61.101176 
L 147.617851 57.125647 
L 162.374876 59.113412 
L 177.131901 60.107294 
L 191.888926 61.101176 
L 206.64595 60.107294 
L 221.402975 63.088941 
L 236.16 60.107294 
L 250.917025 62.095059 
L 265.67405 61.101176 
L 280.431074 57.125647 
L 295.188099 57.125647 
L 309.945124 60.107294 
L 324.702149 62.095059 
L 339.459174 60.107294 
L 354.216198 62.095059 
L 368.973223 60.107294 
L 383.730248 62.095059 
L 398.487273 59.113412 
L 398.487273 56.131765 
L 398.487273 56.131765 
L 383.730248 60.107294 
L 368.973223 58.119529 
L 354.216198 59.113412 
L 339.459174 58.119529 
L 324.702149 60.107294 
L 309.945124 57.125647 
L 295.188099 55.137882 
L 280.431074 54.144 
L 265.67405 59.113412 
L 250.917025 60.107294 
L 236.16 57.125647 
L 221.402975 59.113412 
L 206.64595 57.125647 
L 191.888926 58.119529 
L 177.131901 57.125647 
L 162.374876 56.131765 
L 147.617851 55.137882 
L 132.860826 58.119529 
L 118.103802 55.137882 
L 103.346777 56.131765 
L 88.589752 57.125647 
L 73.832727 59.113412 
z
" clip-path="url(#p5f233d8d12)" style="fill: #17becf"/>
   </g>
   <g id="matplotlib.axis_1">
    <g id="xtick_1">
     <g id="line2d_1">
      <defs>
       <path id="md3dece42dd" d="M 0 0 
L 0 3.5 
" style="stroke: #000000; stroke-width: 0.8"/>
      </defs>
      <g>
       <use xlink:href="#md3dece42dd" x="73.832727" y="307.584" style="stroke: #000000; stroke-width: 0.8"/>
      </g>
     </g>
     <g id="text_1">
      <!-- 0 -->
      <g transform="translate(70.651477 322.182437) scale(0.1 -0.1)">
       <defs>
        <path id="DejaVuSans-30" d="M 2034 4250 
Q 1547 4250 1301 3770 
Q 1056 3291 1056 2328 
Q 1056 1369 1301 889 
Q 1547 409 2034 409 
Q 2525 409 2770 889 
Q 3016 1369 3016 2328 
Q 3016 3291 2770 3770 
Q 2525 4250 2034 4250 
z
M 2034 4750 
Q 2819 4750 3233 4129 
Q 3647 3509 3647 2328 
Q 3647 1150 3233 529 
Q 2819 -91 2034 -91 
Q 1250 -91 836 529 
Q 422 1150 422 2328 
Q 422 3509 836 4129 
Q 1250 4750 2034 4750 
z
" transform="scale(0.015625)"/>
       </defs>
       <use xlink:href="#DejaVuSans-30"/>
      </g>
     </g>
    </g>
    <g id="xtick_2">
     <g id="line2d_2">
      <g>
       <use xlink:href="#md3dece42dd" x="147.617851" y="307.584" style="stroke: #000000; stroke-width: 0.8"/>
      </g>
     </g>
     <g id="text_2">
      <!-- 5 -->
      <g transform="translate(144.436601 322.182437) scale(0.1 -0.1)">
       <defs>
        <path id="DejaVuSans-35" d="M 691 4666 
L 3169 4666 
L 3169 4134 
L 1269 4134 
L 1269 2991 
Q 1406 3038 1543 3061 
Q 1681 3084 1819 3084 
Q 2600 3084 3056 2656 
Q 3513 2228 3513 1497 
Q 3513 744 3044 326 
Q 2575 -91 1722 -91 
Q 1428 -91 1123 -41 
Q 819 9 494 109 
L 494 744 
Q 775 591 1075 516 
Q 1375 441 1709 441 
Q 2250 441 2565 725 
Q 2881 1009 2881 1497 
Q 2881 1984 2565 2268 
Q 2250 2553 1709 2553 
Q 1456 2553 1204 2497 
Q 953 2441 691 2322 
L 691 4666 
z
" transform="scale(0.015625)"/>
       </defs>
       <use xlink:href="#DejaVuSans-35"/>
      </g>
     </g>
    </g>
    <g id="xtick_3">
     <g id="line2d_3">
      <g>
       <use xlink:href="#md3dece42dd" x="221.402975" y="307.584" style="stroke: #000000; stroke-width: 0.8"/>
      </g>
     </g>
     <g id="text_3">
      <!-- 10 -->
      <g transform="translate(215.040475 322.182437) scale(0.1 -0.1)">
       <defs>
        <path id="DejaVuSans-31" d="M 794 531 
L 1825 531 
L 1825 4091 
L 703 3866 
L 703 4441 
L 1819 4666 
L 2450 4666 
L 2450 531 
L 3481 531 
L 3481 0 
L 794 0 
L 794 531 
z
" transform="scale(0.015625)"/>
       </defs>
       <use xlink:href="#DejaVuSans-31"/>
       <use xlink:href="#DejaVuSans-30" x="63.623047"/>
      </g>
     </g>
    </g>
    <g id="xtick_4">
     <g id="line2d_4">
      <g>
       <use xlink:href="#md3dece42dd" x="295.188099" y="307.584" style="stroke: #000000; stroke-width: 0.8"/>
      </g>
     </g>
     <g id="text_4">
      <!-- 15 -->
      <g transform="translate(288.825599 322.182437) scale(0.1 -0.1)">
       <use xlink:href="#DejaVuSans-31"/>
       <use xlink:href="#DejaVuSans-35" x="63.623047"/>
      </g>
     </g>
    </g>
    <g id="xtick_5">
     <g id="line2d_5">
      <g>
       <use xlink:href="#md3dece42dd" x="368.973223" y="307.584" style="stroke: #000000; stroke-width: 0.8"/>
      </g>
     </g>
     <g id="text_5">
      <!-- 20 -->
      <g transform="translate(362.610723 322.182437) scale(0.1 -0.1)">
       <defs>
        <path id="DejaVuSans-32" d="M 1228 531 
L 3431 531 
L 3431 0 
L 469 0 
L 469 531 
Q 828 903 1448 1529 
Q 2069 2156 2228 2338 
Q 2531 2678 2651 2914 
Q 2772 3150 2772 3378 
Q 2772 3750 2511 3984 
Q 2250 4219 1831 4219 
Q 1534 4219 1204 4116 
Q 875 4013 500 3803 
L 500 4441 
Q 881 4594 1212 4672 
Q 1544 4750 1819 4750 
Q 2544 4750 2975 4387 
Q 3406 4025 3406 3419 
Q 3406 3131 3298 2873 
Q 3191 2616 2906 2266 
Q 2828 2175 2409 1742 
Q 1991 1309 1228 531 
z
" transform="scale(0.015625)"/>
       </defs>
       <use xlink:href="#DejaVuSans-32"/>
       <use xlink:href="#DejaVuSans-30" x="63.623047"/>
      </g>
     </g>
    </g>
    <g id="text_6">
     <!-- Generations -->
     <g transform="translate(205.662344 335.860562) scale(0.1 -0.1)">
      <defs>
       <path id="DejaVuSans-47" d="M 3809 666 
L 3809 1919 
L 2778 1919 
L 2778 2438 
L 4434 2438 
L 4434 434 
Q 4069 175 3628 42 
Q 3188 -91 2688 -91 
Q 1594 -91 976 548 
Q 359 1188 359 2328 
Q 359 3472 976 4111 
Q 1594 4750 2688 4750 
Q 3144 4750 3555 4637 
Q 3966 4525 4313 4306 
L 4313 3634 
Q 3963 3931 3569 4081 
Q 3175 4231 2741 4231 
Q 1884 4231 1454 3753 
Q 1025 3275 1025 2328 
Q 1025 1384 1454 906 
Q 1884 428 2741 428 
Q 3075 428 3337 486 
Q 3600 544 3809 666 
z
" transform="scale(0.015625)"/>
       <path id="DejaVuSans-65" d="M 3597 1894 
L 3597 1613 
L 953 1613 
Q 991 1019 1311 708 
Q 1631 397 2203 397 
Q 2534 397 2845 478 
Q 3156 559 3463 722 
L 3463 178 
Q 3153 47 2828 -22 
Q 2503 -91 2169 -91 
Q 1331 -91 842 396 
Q 353 884 353 1716 
Q 353 2575 817 3079 
Q 1281 3584 2069 3584 
Q 2775 3584 3186 3129 
Q 3597 2675 3597 1894 
z
M 3022 2063 
Q 3016 2534 2758 2815 
Q 2500 3097 2075 3097 
Q 1594 3097 1305 2825 
Q 1016 2553 972 2059 
L 3022 2063 
z
" transform="scale(0.015625)"/>
       <path id="DejaVuSans-6e" d="M 3513 2113 
L 3513 0 
L 2938 0 
L 2938 2094 
Q 2938 2591 2744 2837 
Q 2550 3084 2163 3084 
Q 1697 3084 1428 2787 
Q 1159 2491 1159 1978 
L 1159 0 
L 581 0 
L 581 3500 
L 1159 3500 
L 1159 2956 
Q 1366 3272 1645 3428 
Q 1925 3584 2291 3584 
Q 2894 3584 3203 3211 
Q 3513 2838 3513 2113 
z
" transform="scale(0.015625)"/>
       <path id="DejaVuSans-72" d="M 2631 2963 
Q 2534 3019 2420 3045 
Q 2306 3072 2169 3072 
Q 1681 3072 1420 2755 
Q 1159 2438 1159 1844 
L 1159 0 
L 581 0 
L 581 3500 
L 1159 3500 
L 1159 2956 
Q 1341 3275 1631 3429 
Q 1922 3584 2338 3584 
Q 2397 3584 2469 3576 
Q 2541 3569 2628 3553 
L 2631 2963 
z
" transform="scale(0.015625)"/>
       <path id="DejaVuSans-61" d="M 2194 1759 
Q 1497 1759 1228 1600 
Q 959 1441 959 1056 
Q 959 750 1161 570 
Q 1363 391 1709 391 
Q 2188 391 2477 730 
Q 2766 1069 2766 1631 
L 2766 1759 
L 2194 1759 
z
M 3341 1997 
L 3341 0 
L 2766 0 
L 2766 531 
Q 2569 213 2275 61 
Q 1981 -91 1556 -91 
Q 1019 -91 701 211 
Q 384 513 384 1019 
Q 384 1609 779 1909 
Q 1175 2209 1959 2209 
L 2766 2209 
L 2766 2266 
Q 2766 2663 2505 2880 
Q 2244 3097 1772 3097 
Q 1472 3097 1187 3025 
Q 903 2953 641 2809 
L 641 3341 
Q 956 3463 1253 3523 
Q 1550 3584 1831 3584 
Q 2591 3584 2966 3190 
Q 3341 2797 3341 1997 
z
" transform="scale(0.015625)"/>
       <path id="DejaVuSans-74" d="M 1172 4494 
L 1172 3500 
L 2356 3500 
L 2356 3053 
L 1172 3053 
L 1172 1153 
Q 1172 725 1289 603 
Q 1406 481 1766 481 
L 2356 481 
L 2356 0 
L 1766 0 
Q 1100 0 847 248 
Q 594 497 594 1153 
L 594 3053 
L 172 3053 
L 172 3500 
L 594 3500 
L 594 4494 
L 1172 4494 
z
" transform="scale(0.015625)"/>
       <path id="DejaVuSans-69" d="M 603 3500 
L 1178 3500 
L 1178 0 
L 603 0 
L 603 3500 
z
M 603 4863 
L 1178 4863 
L 1178 4134 
L 603 4134 
L 603 4863 
z
" transform="scale(0.015625)"/>
       <path id="DejaVuSans-6f" d="M 1959 3097 
Q 1497 3097 1228 2736 
Q 959 2375 959 1747 
Q 959 1119 1226 758 
Q 1494 397 1959 397 
Q 2419 397 2687 759 
Q 2956 1122 2956 1747 
Q 2956 2369 2687 2733 
Q 2419 3097 1959 3097 
z
M 1959 3584 
Q 2709 3584 3137 3096 
Q 3566 2609 3566 1747 
Q 3566 888 3137 398 
Q 2709 -91 1959 -91 
Q 1206 -91 779 398 
Q 353 888 353 1747 
Q 353 2609 779 3096 
Q 1206 3584 1959 3584 
z
" transform="scale(0.015625)"/>
       <path id="DejaVuSans-73" d="M 2834 3397 
L 2834 2853 
Q 2591 2978 2328 3040 
Q 2066 3103 1784 3103 
Q 1356 3103 1142 2972 
Q 928 2841 928 2578 
Q 928 2378 1081 2264 
Q 1234 2150 1697 2047 
L 1894 2003 
Q 2506 1872 2764 1633 
Q 3022 1394 3022 966 
Q 3022 478 2636 193 
Q 2250 -91 1575 -91 
Q 1294 -91 989 -36 
Q 684 19 347 128 
L 347 722 
Q 666 556 975 473 
Q 1284 391 1588 391 
Q 1994 391 2212 530 
Q 2431 669 2431 922 
Q 2431 1156 2273 1281 
Q 2116 1406 1581 1522 
L 1381 1569 
Q 847 1681 609 1914 
Q 372 2147 372 2553 
Q 372 3047 722 3315 
Q 1072 3584 1716 3584 
Q 2034 3584 2315 3537 
Q 2597 3491 2834 3397 
z
" transform="scale(0.015625)"/>
      </defs>
      <use xlink:href="#DejaVuSans-47"/>
      <use xlink:href="#DejaVuSans-65" x="77.490234"/>
      <use xlink:href="#DejaVuSans-6e" x="139.013672"/>
      <use xlink:href="#DejaVuSans-65" x="202.392578"/>
      <use xlink:href="#DejaVuSans-72" x="263.916016"/>
      <use xlink:href="#DejaVuSans-61" x="305.029297"/>
      <use xlink:href="#DejaVuSans-74" x="366.308594"/>
      <use xlink:href="#DejaVuSans-69" x="405.517578"/>
      <use xlink:href="#DejaVuSans-6f" x="433.300781"/>
      <use xlink:href="#DejaVuSans-6e" x="494.482422"/>
      <use xlink:href="#DejaVuSans-73" x="557.861328"/>
     </g>
    </g>
   </g>
   <g id="matplotlib.axis_2">
    <g id="ytick_1">
     <g id="line2d_6">
      <defs>
       <path id="m64a5a25240" d="M 0 0 
L -3.5 0 
" style="stroke: #000000; stroke-width: 0.8"/>
      </defs>
      <g>
       <use xlink:href="#m64a5a25240" x="57.6" y="307.584" style="stroke: #000000; stroke-width: 0.8"/>
      </g>
     </g>
     <g id="text_7">
      <!-- 0 -->
      <g transform="translate(44.2375 311.383219) scale(0.1 -0.1)">
       <use xlink:href="#DejaVuSans-30"/>
      </g>
     </g>
    </g>
    <g id="ytick_2">
     <g id="line2d_7">
      <g>
       <use xlink:href="#m64a5a25240" x="57.6" y="257.889882" style="stroke: #000000; stroke-width: 0.8"/>
      </g>
     </g>
     <g id="text_8">
      <!-- 50 -->
      <g transform="translate(37.875 261.689101) scale(0.1 -0.1)">
       <use xlink:href="#DejaVuSans-35"/>
       <use xlink:href="#DejaVuSans-30" x="63.623047"/>
      </g>
     </g>
    </g>
    <g id="ytick_3">
     <g id="line2d_8">
      <g>
       <use xlink:href="#m64a5a25240" x="57.6" y="208.195765" style="stroke: #000000; stroke-width: 0.8"/>
      </g>
     </g>
     <g id="text_9">
      <!-- 100 -->
      <g transform="translate(31.5125 211.994983) scale(0.1 -0.1)">
       <use xlink:href="#DejaVuSans-31"/>
       <use xlink:href="#DejaVuSans-30" x="63.623047"/>
       <use xlink:href="#DejaVuSans-30" x="127.246094"/>
      </g>
     </g>
    </g>
    <g id="ytick_4">
     <g id="line2d_9">
      <g>
       <use xlink:href="#m64a5a25240" x="57.6" y="158.501647" style="stroke: #000000; stroke-width: 0.8"/>
      </g>
     </g>
     <g id="text_10">
      <!-- 150 -->
      <g transform="translate(31.5125 162.300866) scale(0.1 -0.1)">
       <use xlink:href="#DejaVuSans-31"/>
       <use xlink:href="#DejaVuSans-35" x="63.623047"/>
       <use xlink:href="#DejaVuSans-30" x="127.246094"/>
      </g>
     </g>
    </g>
    <g id="ytick_5">
     <g id="line2d_10">
      <g>
       <use xlink:href="#m64a5a25240" x="57.6" y="108.807529" style="stroke: #000000; stroke-width: 0.8"/>
      </g>
     </g>
     <g id="text_11">
      <!-- 200 -->
      <g transform="translate(31.5125 112.606748) scale(0.1 -0.1)">
       <use xlink:href="#DejaVuSans-32"/>
       <use xlink:href="#DejaVuSans-30" x="63.623047"/>
       <use xlink:href="#DejaVuSans-30" x="127.246094"/>
      </g>
     </g>
    </g>
    <g id="ytick_6">
     <g id="line2d_11">
      <g>
       <use xlink:href="#m64a5a25240" x="57.6" y="59.113412" style="stroke: #000000; stroke-width: 0.8"/>
      </g>
     </g>
     <g id="text_12">
      <!-- 250 -->
      <g transform="translate(31.5125 62.912631) scale(0.1 -0.1)">
       <use xlink:href="#DejaVuSans-32"/>
       <use xlink:href="#DejaVuSans-35" x="63.623047"/>
       <use xlink:href="#DejaVuSans-30" x="127.246094"/>
      </g>
     </g>
    </g>
    <g id="text_13">
     <!-- Size per Species -->
     <g transform="translate(25.432812 215.520969) rotate(-90) scale(0.1 -0.1)">
      <defs>
       <path id="DejaVuSans-53" d="M 3425 4513 
L 3425 3897 
Q 3066 4069 2747 4153 
Q 2428 4238 2131 4238 
Q 1616 4238 1336 4038 
Q 1056 3838 1056 3469 
Q 1056 3159 1242 3001 
Q 1428 2844 1947 2747 
L 2328 2669 
Q 3034 2534 3370 2195 
Q 3706 1856 3706 1288 
Q 3706 609 3251 259 
Q 2797 -91 1919 -91 
Q 1588 -91 1214 -16 
Q 841 59 441 206 
L 441 856 
Q 825 641 1194 531 
Q 1563 422 1919 422 
Q 2459 422 2753 634 
Q 3047 847 3047 1241 
Q 3047 1584 2836 1778 
Q 2625 1972 2144 2069 
L 1759 2144 
Q 1053 2284 737 2584 
Q 422 2884 422 3419 
Q 422 4038 858 4394 
Q 1294 4750 2059 4750 
Q 2388 4750 2728 4690 
Q 3069 4631 3425 4513 
z
" transform="scale(0.015625)"/>
       <path id="DejaVuSans-7a" d="M 353 3500 
L 3084 3500 
L 3084 2975 
L 922 459 
L 3084 459 
L 3084 0 
L 275 0 
L 275 525 
L 2438 3041 
L 353 3041 
L 353 3500 
z
" transform="scale(0.015625)"/>
       <path id="DejaVuSans-20" transform="scale(0.015625)"/>
       <path id="DejaVuSans-70" d="M 1159 525 
L 1159 -1331 
L 581 -1331 
L 581 3500 
L 1159 3500 
L 1159 2969 
Q 1341 3281 1617 3432 
Q 1894 3584 2278 3584 
Q 2916 3584 3314 3078 
Q 3713 2572 3713 1747 
Q 3713 922 3314 415 
Q 2916 -91 2278 -91 
Q 1894 -91 1617 61 
Q 1341 213 1159 525 
z
M 3116 1747 
Q 3116 2381 2855 2742 
Q 2594 3103 2138 3103 
Q 1681 3103 1420 2742 
Q 1159 2381 1159 1747 
Q 1159 1113 1420 752 
Q 1681 391 2138 391 
Q 2594 391 2855 752 
Q 3116 1113 3116 1747 
z
" transform="scale(0.015625)"/>
       <path id="DejaVuSans-63" d="M 3122 3366 
L 3122 2828 
Q 2878 2963 2633 3030 
Q 2388 3097 2138 3097 
Q 1578 3097 1268 2742 
Q 959 2388 959 1747 
Q 959 1106 1268 751 
Q 1578 397 2138 397 
Q 2388 397 2633 464 
Q 2878 531 3122 666 
L 3122 134 
Q 2881 22 2623 -34 
Q 2366 -91 2075 -91 
Q 1284 -91 818 406 
Q 353 903 353 1747 
Q 353 2603 823 3093 
Q 1294 3584 2113 3584 
Q 2378 3584 2631 3529 
Q 2884 3475 3122 3366 
z
" transform="scale(0.015625)"/>
      </defs>
      <use xlink:href="#DejaVuSans-53"/>
      <use xlink:href="#DejaVuSans-69" x="63.476562"/>
      <use xlink:href="#DejaVuSans-7a" x="91.259766"/>
      <use xlink:href="#DejaVuSans-65" x="143.75"/>
      <use xlink:href="#DejaVuSans-20" x="205.273438"/>
      <use xlink:href="#DejaVuSans-70" x="237.060547"/>
      <use xlink:href="#DejaVuSans-65" x="300.537109"/>
      <use xlink:href="#DejaVuSans-72" x="362.060547"/>
      <use xlink:href="#DejaVuSans-20" x="403.173828"/>
      <use xlink:href="#DejaVuSans-53" x="434.960938"/>
      <use xlink:href="#DejaVuSans-70" x="498.4375"/>
      <use xlink:href="#DejaVuSans-65" x="561.914062"/>
      <use xlink:href="#DejaVuSans-63" x="623.4375"/>
      <use xlink:href="#DejaVuSans-69" x="678.417969"/>
      <use xlink:href="#DejaVuSans-65" x="706.201172"/>
      <use xlink:href="#DejaVuSans-73" x="767.724609"/>
     </g>
    </g>
   </g>
   <g id="patch_3">
    <path d="M 57.6 307.584 
L 57.6 41.472 
" style="fill: none; stroke: #000000; stroke-width: 0.8; stroke-linejoin: miter; stroke-linecap: square"/>
   </g>
   <g id="patch_4">
    <path d="M 414.72 307.584 
L 414.72 41.472 
" style="fill: none; stroke: #000000; stroke-width: 0.8; stroke-linejoin: miter; stroke-linecap: square"/>
   </g>
   <g id="patch_5">
    <path d="M 57.6 307.584 
L 414.72 307.584 
" style="fill: none; stroke: #000000; stroke-width: 0.8; stroke-linejoin: miter; stroke-linecap: square"/>
   </g>
   <g id="patch_6">
    <path d="M 57.6 41.472 
L 414.72 41.472 
" style="fill: none; stroke: #000000; stroke-width: 0.8; stroke-linejoin: miter; stroke-linecap: square"/>
   </g>
   <g id="text_14">
    <!-- Speciation -->
    <g transform="translate(204.714375 35.472) scale(0.12 -0.12)">
     <use xlink:href="#DejaVuSans-53"/>
     <use xlink:href="#DejaVuSans-70" x="63.476562"/>
     <use xlink:href="#DejaVuSans-65" x="126.953125"/>
     <use xlink:href="#DejaVuSans-63" x="188.476562"/>
     <use xlink:href="#DejaVuSans-69" x="243.457031"/>
     <use xlink:href="#DejaVuSans-61" x="271.240234"/>
     <use xlink:href="#DejaVuSans-74" x="332.519531"/>
     <use xlink:href="#DejaVuSans-69" x="371.728516"/>
     <use xlink:href="#DejaVuSans-6f" x="399.511719"/>
     <use xlink:href="#DejaVuSans-6e" x="460.693359"/>
    </g>
   </g>
  </g>
 </g>
 <defs>
  <clipPath id="p5f233d8d12">
   <rect x="57.6" y="41.472" width="357.12" height="266.112"/>
  </clipPath>
 </defs>
</svg>
